<!DOCTYPE svg PUBLIC "-//W3C//DTD SVG 1.1//EN" "http://www.w3.org/Graphics/SVG/1.1/DTD/svg11.dtd">
<!-- Uploaded to: SVG Repo, www.svgrepo.com, Transformed by: SVG Repo Mixer Tools -->
<svg fill="#1e39ff" height="800px" width="800px" version="1.1" id="Layer_1" xmlns="http://www.w3.org/2000/svg" xmlns:xlink="http://www.w3.org/1999/xlink" viewBox="0 0 299.88 299.88" xml:space="preserve">
<g id="SVGRepo_bgCarrier" stroke-width="0"/>
<g id="SVGRepo_tracerCarrier" stroke-linecap="round" stroke-linejoin="round"/>
<g id="SVGRepo_iconCarrier"> <g> <g> <g> <path d="M281.496,74.248l-128.52-73.44c-1.873-1.077-4.192-1.077-6.071,0l-128.52,73.44c-1.916,1.095-3.084,3.127-3.084,5.312 v140.76c0,2.191,1.169,4.217,3.084,5.312l128.52,73.44c0.936,0.539,1.989,0.808,3.036,0.808s2.099-0.269,3.036-0.808 l128.52-73.44c1.916-1.095,3.085-3.127,3.085-5.312V79.56C284.58,77.369,283.411,75.343,281.496,74.248z M272.34,216.77 l-122.4,69.952L27.54,216.77V83.11l122.4-69.952l122.4,69.952V216.77z"/> <path d="M94.872,183.612c0,3.391,2.729,6.12,6.12,6.12s6.12-2.729,6.12-6.12c0-60.851,63.116-78.673,94.003-83.752 L84.321,222.223c-2.332,2.436-2.24,6.31,0.202,8.654c1.175,1.12,2.699,1.683,4.217,1.683c1.616,0,3.225-0.636,4.431-1.885 l128.52-134.64c1.738-1.812,2.185-4.498,1.144-6.775c-1.053-2.277-3.384-3.788-5.894-3.562 C215.73,85.772,94.872,93.183,94.872,183.612z"/> <path d="M195.54,155.491c-8.96,32.516-16.022,58.116-69.444,52.614c-3.397-0.447-6.377,2.099-6.72,5.459 c-0.343,3.36,2.093,6.371,5.453,6.72c5.171,0.545,9.988,0.802,14.474,0.802c50.857,0,59.945-32.968,68.042-62.344 c4.461-16.206,9.076-32.975,20.38-44.272c2.393-2.393,2.393-6.255,0-8.654c-2.399-2.393-6.261-2.393-8.654,0 C205.479,119.401,200.43,137.755,195.54,155.491z"/> </g> </g> </g> </g>
</svg>